<?xml version="1.0" encoding="utf-8"?>
<!-- Generator: Adobe Illustrator 16.0.0, SVG Export Plug-In . SVG Version: 6.00 Build 0)  -->
<!DOCTYPE svg PUBLIC "-//W3C//DTD SVG 1.1//EN" "http://www.w3.org/Graphics/SVG/1.1/DTD/svg11.dtd">
<svg version="1.1" id="Layer_1" xmlns="http://www.w3.org/2000/svg" xmlns:xlink="http://www.w3.org/1999/xlink" x="0px" y="0px"
	 width="120px" height="120px" viewBox="0 0 120 120" enable-background="new 0 0 120 120" xml:space="preserve">

<style>
	#r5eAga_1_ {
		fill: #fff;
	}
</style>
<g id="r5eAga_1_">
	<g>
		<path d="M7.903,82.811c0-14.926,0-29.853,0-44.779c1.825-6.59,5.733-11.809,11.458-15.284
			C30.243,16.142,41.357,9.916,52.408,3.592c6.938-3.969,13.79-3.58,20.586,0.535c4.69,2.839,9.5,5.481,14.236,8.248
			c7.951,4.645,15.938,9.237,23.811,14.011c4.736,2.871,6.273,9.104,3.337,13.335c-1.059-0.436-2.242-0.785-3.287-1.376
			c-13.157-7.434-26.356-14.796-39.41-22.408c-6.252-3.646-12.242-3.85-18.466-0.204c-8.218,4.813-16.625,9.322-24.672,14.402
			c-5.833,3.681-9.665,8.77-9.4,16.372c0.324,9.316,0.324,18.66-0.001,27.977c-0.257,7.365,3.313,12.271,9.101,15.809
			c8.125,4.967,16.522,9.486,24.682,14.396c6.342,3.818,12.421,3.723,18.742-0.027c9.615-5.701,19.352-11.201,29.021-16.814
			c1.019-0.592,1.934-1.361,3.263-2.311c-3.714-3.457-8-4.982-11.649-7.398c-1.685,1.494-2.984,3.053-4.629,4.037
			c-6.662,3.982-13.416,7.818-20.166,11.65c-3.635,2.064-7.335,1.99-10.952-0.082c-7.186-4.119-14.339-8.295-21.53-12.404
			c-3.195-1.824-4.701-4.615-4.727-8.182c-0.061-8.395-0.032-16.788-0.025-25.182c0.003-3.99,1.846-6.925,5.257-8.899
			c6.898-3.993,13.834-7.92,20.702-11.963c4.086-2.406,8.072-2.21,12.066,0.079c6.284,3.602,12.61,7.137,18.806,10.887
			c4.392,2.661,7.212,6.269,6.885,11.918c-0.313,5.46-0.068,10.954-0.068,16.393c5.078,3.008,9.721,5.924,14.524,8.549
			c3.609,1.971,6.414,4.488,7.675,8.492c0,1.66,0,3.316,0,4.977c-1.382,3.191-3.869,5.277-6.806,6.979
			c-11.829,6.84-23.719,13.58-35.423,20.631c-7.803,4.695-15.291,4.852-23.121,0.174c-9.6-5.732-19.281-11.338-29.057-16.768
			C14.886,95.635,9.681,90.699,7.903,82.811z"/>
		<path fill-rule="evenodd" clip-rule="evenodd" fill="none" d="M116.119,83.432c-1.261-4.004-4.065-6.521-7.675-8.492
			c-4.804-2.625-9.446-5.541-14.524-8.549c0-5.439-0.245-10.932,0.068-16.393c0.327-5.649-2.493-9.257-6.885-11.918
			c-6.195-3.75-12.521-7.286-18.806-10.887c-3.994-2.289-7.98-2.485-12.066-0.079c-6.868,4.043-13.804,7.971-20.702,11.963
			c-3.411,1.975-5.254,4.91-5.257,8.899c-0.007,8.394-0.036,16.787,0.025,25.182c0.025,3.566,1.532,6.357,4.727,8.182
			c7.191,4.109,14.345,8.285,21.53,12.404c3.616,2.072,7.317,2.146,10.952,0.082c6.75-3.832,13.504-7.668,20.166-11.65
			c1.645-0.984,2.944-2.543,4.629-4.037c3.649,2.416,7.936,3.941,11.649,7.398c-1.329,0.949-2.244,1.719-3.263,2.311
			c-9.67,5.613-19.406,11.113-29.021,16.814c-6.321,3.75-12.4,3.846-18.742,0.027c-8.16-4.91-16.557-9.43-24.682-14.396
			c-5.788-3.537-9.358-8.443-9.101-15.809c0.325-9.316,0.325-18.66,0.001-27.977c-0.265-7.602,3.567-12.691,9.4-16.372
			c8.047-5.08,16.454-9.589,24.672-14.402c6.225-3.646,12.214-3.441,18.466,0.204c13.054,7.612,26.253,14.975,39.41,22.408
			c1.045,0.591,2.229,0.94,3.287,1.376c2.937-4.231,1.399-10.464-3.337-13.335c-7.873-4.774-15.859-9.366-23.811-14.011
			c-4.736-2.767-9.546-5.409-14.236-8.248c-6.796-4.115-13.647-4.504-20.586-0.535C41.357,9.916,30.243,16.142,19.361,22.748
			c-5.724,3.475-9.633,8.694-11.458,15.284c0-12.646,0-25.292,0-37.938c36.072,0,72.144,0,108.216,0
			C116.119,27.874,116.119,55.652,116.119,83.432z"/>
		<path fill-rule="evenodd" clip-rule="evenodd" fill="none" d="M7.903,82.811c1.777,7.889,6.982,12.824,13.809,16.613
			c9.776,5.43,19.457,11.035,29.057,16.768c7.83,4.678,15.318,4.521,23.121-0.174c11.704-7.051,23.594-13.791,35.423-20.631
			c2.937-1.701,5.424-3.787,6.806-6.979c0,10.574,0,21.145,0,31.717c-36.072,0-72.144,0-108.216,0
			C7.903,107.688,7.903,95.248,7.903,82.811z"/>
	</g>
</g>
</svg>
